<?xml version="1.0" standalone="no"?>
<!DOCTYPE svg PUBLIC "-//W3C//DTD SVG 20010904//EN"
 "http://www.w3.org/TR/2001/REC-SVG-20010904/DTD/svg10.dtd">
<svg version="1.0" xmlns="http://www.w3.org/2000/svg"
 width="16.000000pt" height="16.000000pt" viewBox="0 0 16.000000 16.000000"
 preserveAspectRatio="xMidYMid meet">

<g transform="translate(0.000000,16.000000) scale(0.100000,-0.100000)"
fill="#000000" stroke="none">
<path d="M65 151 c-3 -6 -3 -16 1 -22 3 -6 0 -15 -7 -20 -10 -6 -11 -9 -1 -9
7 0 12 -14 12 -35 0 -25 -4 -33 -14 -29 -8 3 -16 15 -19 26 -3 11 -10 17 -16
13 -15 -9 2 -38 34 -59 23 -15 27 -15 50 0 32 21 49 50 35 59 -6 3 -14 -5 -20
-19 -14 -37 -30 -32 -30 9 0 21 5 35 13 35 7 0 8 3 2 8 -5 4 -10 16 -10 26 0
22 -20 33 -30 17z"/>
</g>
</svg>
