<?xml version="1.0" standalone="no"?>
<!DOCTYPE svg PUBLIC "-//W3C//DTD SVG 20010904//EN"
 "http://www.w3.org/TR/2001/REC-SVG-20010904/DTD/svg10.dtd">
<svg version="1.0" xmlns="http://www.w3.org/2000/svg"
 width="26.000000pt" height="26.000000pt" viewBox="0 0 26.000000 26.000000"
 preserveAspectRatio="xMidYMid meet">
<metadata>
Created by potrace 1.16, written by Peter Selinger 2001-2019
</metadata>
<g transform="translate(0.000000,26.000000) scale(0.100000,-0.100000)"
fill="#000000" stroke="none">
<path d="M97 254 c-11 -11 -8 -62 3 -69 15 -9 12 -25 -5 -25 -8 0 -15 -4 -15
-10 0 -5 7 -10 15 -10 11 0 15 -11 15 -40 0 -22 -4 -40 -8 -40 -17 0 -42 37
-36 53 7 18 -30 42 -52 33 -41 -16 9 -93 83 -129 30 -14 36 -14 70 3 54 26 95
72 91 101 -1 13 -10 25 -19 27 -20 4 -52 -26 -43 -39 6 -11 -23 -49 -38 -49
-4 0 -8 18 -8 40 0 29 4 40 15 40 8 0 15 5 15 10 0 6 -7 10 -15 10 -18 0 -19
12 -4 27 6 6 9 23 7 39 -2 24 -8 30 -33 32 -17 2 -34 0 -38 -4z"/>
</g>
</svg>
